<svg xmlns="http://www.w3.org/2000/svg" x="0px" y="0px" width="100" height="100" viewBox="0 0 48 48">
<linearGradient id="pB8WrnS6r1h-Q7MAHzW6Za_DccJYbpJcGz2_gr1" x1="3" x2="28" y1="16.5" y2="16.5" gradientUnits="userSpaceOnUse"><stop offset="0" stop-color="#0052cc"></stop><stop offset=".044" stop-color="#0255cf"></stop><stop offset=".464" stop-color="#1c77f2"></stop><stop offset=".732" stop-color="#2684ff"></stop></linearGradient><circle cx="15.5" cy="16.5" r="12.5" fill="url(#pB8WrnS6r1h-Q7MAHzW6Za_DccJYbpJcGz2_gr1)"></circle><linearGradient id="pB8WrnS6r1h-Q7MAHzW6Zb_DccJYbpJcGz2_gr2" x1="39" x2="44" y1="17.5" y2="17.5" gradientUnits="userSpaceOnUse"><stop offset="0" stop-color="#33c481"></stop><stop offset="1" stop-color="#21a366"></stop></linearGradient><path fill="url(#pB8WrnS6r1h-Q7MAHzW6Zb_DccJYbpJcGz2_gr2)" d="M44,17.5c0,1.381-1.12,2.5-2.5,2.5S39,18.881,39,17.5s1.12-2.5,2.5-2.5S44,16.119,44,17.5z"></path><linearGradient id="pB8WrnS6r1h-Q7MAHzW6Zc_DccJYbpJcGz2_gr3" x1="29" x2="39" y1="25" y2="25" gradientUnits="userSpaceOnUse"><stop offset="0" stop-color="#f44f5a"></stop><stop offset=".443" stop-color="#ee3d4a"></stop><stop offset="1" stop-color="#e52030"></stop></linearGradient><path fill="url(#pB8WrnS6r1h-Q7MAHzW6Zc_DccJYbpJcGz2_gr3)" d="M39,25c0,2.761-2.238,5-5,5s-5-2.239-5-5s2.238-5,5-5S39,22.239,39,25z"></path><linearGradient id="pB8WrnS6r1h-Q7MAHzW6Zd_DccJYbpJcGz2_gr4" x1="28" x2="40" y1="38" y2="38" gradientUnits="userSpaceOnUse"><stop offset="0" stop-color="#ffb700"></stop><stop offset=".559" stop-color="#fecc00"></stop><stop offset="1" stop-color="#fede00"></stop></linearGradient><path fill="url(#pB8WrnS6r1h-Q7MAHzW6Zd_DccJYbpJcGz2_gr4)" d="M40,38c0,3.314-2.686,6-6,6s-6-2.686-6-6s2.686-6,6-6S40,34.687,40,38z"></path>
</svg>